<mxfile host="app.diagrams.net" modified="2023-07-23T02:27:53.831Z" agent="Mozilla/5.0 (Macintosh; Intel Mac OS X 10_15_7) AppleWebKit/537.36 (KHTML, like Gecko) Chrome/114.0.0.0 Whale/3.21.192.22 Safari/537.36" etag="yTeYL0-3mnu3hCu8lR1J" version="21.3.5" type="github">
  <diagram name="페이지-1" id="Y4-RYcunbu9aRbEV_naR">
    <mxGraphModel dx="748" dy="693" grid="1" gridSize="10" guides="1" tooltips="1" connect="1" arrows="1" fold="1" page="1" pageScale="1" pageWidth="827" pageHeight="1169" math="0" shadow="0">
      <root>
        <mxCell id="0" />
        <mxCell id="1" parent="0" />
        <mxCell id="QpR7jnTuusSYjtvRaTHo-1" value="Presentation Layer" style="rounded=0;whiteSpace=wrap;html=1;" vertex="1" parent="1">
          <mxGeometry x="50" y="130" width="120" height="60" as="geometry" />
        </mxCell>
        <mxCell id="QpR7jnTuusSYjtvRaTHo-2" value="Presentation Layer" style="rounded=0;whiteSpace=wrap;html=1;" vertex="1" parent="1">
          <mxGeometry x="50" y="200" width="120" height="60" as="geometry" />
        </mxCell>
        <mxCell id="QpR7jnTuusSYjtvRaTHo-3" value="Service Layer" style="rounded=0;whiteSpace=wrap;html=1;" vertex="1" parent="1">
          <mxGeometry x="50" y="270" width="120" height="60" as="geometry" />
        </mxCell>
        <mxCell id="QpR7jnTuusSYjtvRaTHo-5" value="Actor" style="shape=umlActor;verticalLabelPosition=bottom;verticalAlign=top;html=1;outlineConnect=0;" vertex="1" parent="1">
          <mxGeometry x="95" y="40" width="30" height="60" as="geometry" />
        </mxCell>
        <mxCell id="QpR7jnTuusSYjtvRaTHo-8" value="Presentation Layer" style="rounded=0;whiteSpace=wrap;html=1;" vertex="1" parent="1">
          <mxGeometry x="220" y="130" width="120" height="40" as="geometry" />
        </mxCell>
        <mxCell id="QpR7jnTuusSYjtvRaTHo-9" value="Application Layer" style="rounded=0;whiteSpace=wrap;html=1;" vertex="1" parent="1">
          <mxGeometry x="220" y="180" width="120" height="40" as="geometry" />
        </mxCell>
        <mxCell id="QpR7jnTuusSYjtvRaTHo-10" value="Domain Layer" style="rounded=0;whiteSpace=wrap;html=1;" vertex="1" parent="1">
          <mxGeometry x="220" y="230" width="120" height="40" as="geometry" />
        </mxCell>
        <mxCell id="QpR7jnTuusSYjtvRaTHo-12" value="Actor" style="shape=umlActor;verticalLabelPosition=bottom;verticalAlign=top;html=1;outlineConnect=0;" vertex="1" parent="1">
          <mxGeometry x="265" y="40" width="30" height="60" as="geometry" />
        </mxCell>
        <mxCell id="QpR7jnTuusSYjtvRaTHo-13" value="Infrastructure" style="rounded=0;whiteSpace=wrap;html=1;" vertex="1" parent="1">
          <mxGeometry x="220" y="280" width="120" height="40" as="geometry" />
        </mxCell>
      </root>
    </mxGraphModel>
  </diagram>
</mxfile>
